<svg xmlns="http://www.w3.org/2000/svg" xmlns:xlink="http://www.w3.org/1999/xlink" width="256" height="256" viewBox="0 0 256 256"><defs><linearGradient id="linear-gradient" x1="40.57" y1="-23.43" x2="215.43" y2="279.43" gradientUnits="userSpaceOnUse"><stop offset="0.15" stop-color="#5d2e7a"/><stop offset="1" stop-color="#4472cd"/></linearGradient><clipPath id="clip-path"><path d="M164.28,48.11c-6.59-1.89-13.55-3.46-20.75-3.46-42.82,0-85.56,28.48-80.72,78.65,3.24,33.63,23.32,31.24,23.32,59.14,0,16.4-15.31,23.7-19.1,25.26-4.55,1.87-9.06,2.38-9.06,6.55,0,8.74,13.9,9.63,17.29,9.63,22.7,0,36.61-14.28,45.21-31.4a101.09,101.09,0,0,0,10.33-43.37c0-10.66-2.83-18.54-6.81-27.72,8.1-10.27,14.4-25.64,14.4-39.48,7.53-1,26-10.56,26-10.56Z" style="fill:none"/></clipPath><clipPath id="clip-path-2"><path d="M122.07,65.31c-2-6.15-.64-15.17,6.61-20.29,7.61-5.38,20-7.91,35.67-6.18,3.63.4,7.26,4.47,8.25,4.53s1-2.18,3.53-2.33c27.51-1.59,28.7,34.13,16.43,35.22-7,.62-11.65-3-15.31-6.69a3.62,3.62,0,0,0-5.27.11c-3.14,3.53-8.68,7.78-17.68,9.71C133.7,83.83,124.65,73.09,122.07,65.31Z" style="fill:none"/></clipPath><clipPath id="clip-path-3"><path d="M195.21,51.13c4.35,5.64,4.62,13.91,1.51,16.53-3.82,3.21-12,1.36-15.7-5.36-3.51-6.31-4.21-14.35-1.51-16.53C183.69,42.4,191.76,46.65,195.21,51.13Z" style="fill:none"/></clipPath><clipPath id="clip-path-4"><path d="M169.44,57.13c.28,8.4-9.75,14.75-20,15.1s-17.11-4.58-18.55-12.86c-1.81-10.38,5.77-14.9,18-16C167.36,41.8,169.15,48.74,169.44,57.13Z" style="fill:none"/></clipPath></defs><title>wp-icon</title><g id="Layer_2" data-name="Layer 2"><g id="Layer_1-2" data-name="Layer 1"><rect width="256" height="256" style="fill:url(#linear-gradient)"/><path d="M222.41,114a48.72,48.72,0,0,0-.54-6.75h0A20.06,20.06,0,0,0,211.1,92.44l-.39-.2c-.61-.3-1.28-.59-2-.87a11.66,11.66,0,0,0-2.07-4.06l-2.71-3.44a20.94,20.94,0,0,0,3.69-5.46,31.27,31.27,0,0,0,2.66-14.8,36.77,36.77,0,0,0-8.42-22.12c-6-7-14.35-10.77-24.13-10.77-.77,0-1.56,0-2.35.07a14.07,14.07,0,0,0-2.48.37,18.57,18.57,0,0,0-7.41-2.67,91.85,91.85,0,0,0-10.75-.66c-11,0-20.68,2.25-28.21,6.51a105.32,105.32,0,0,0-22.68,6.22A90.07,90.07,0,0,0,70.7,63.14c-13.4,14.76-20.26,33.4-19.91,54-4.81,6.17-11.49,10.41-19.88,12.6a5.73,5.73,0,0,0-.18,11,43.33,43.33,0,0,0,10.54,1.38,59.32,59.32,0,0,0-3.23,7.2,57.59,57.59,0,0,0-3.4,24.24,5.73,5.73,0,0,0,11.24,1.15,24.81,24.81,0,0,1,3.29-6.6c2.62-3.68,5.64-5.49,9.25-5.54a5,5,0,0,1,4.53,2.14,5.87,5.87,0,0,1-.08,5.74c-1.25,2.6-6.93,10.95-27.34,9a5.73,5.73,0,0,0-4.35,10,42.92,42.92,0,0,0,10.24,6.09,82.12,82.12,0,0,0,13.22,4.59c-.53.3-1.06.64-1.58,1a15.66,15.66,0,0,0-6.74,13c0,4.2,1.49,14.48,15.3,19.14a45,45,0,0,0,13.64,2.15,55.93,55.93,0,0,0,35-11.71,66.49,66.49,0,0,0,12.85-13.34,5.72,5.72,0,0,0,2,.5c12.35.72,26.36-1.93,39.46-7.48,14.4-6.1,26.12-15,33.91-25.71a63.37,63.37,0,0,0,8.24-15.48,69.76,69.76,0,0,0,3.78-15.9l0-.23v-.07l.61-.69a30,30,0,0,0,3.51-4.51,53.58,53.58,0,0,0,5.41-11.73,48.94,48.94,0,0,0,1.9-8.51A47.93,47.93,0,0,0,222.41,114Z" style="fill:#fff;opacity:0.65"/><path d="M164.28,48.11c-6.59-1.89-13.55-3.46-20.75-3.46-42.82,0-85.56,28.48-80.72,78.65,3.24,33.63,23.32,31.24,23.32,59.14,0,16.4-15.31,23.7-19.1,25.26-4.55,1.87-9.06,2.38-9.06,6.55,0,8.74,13.9,9.63,17.29,9.63,22.7,0,36.61-14.28,45.21-31.4a101.09,101.09,0,0,0,10.33-43.37c0-10.66-2.83-18.54-6.81-27.72,8.1-10.27,14.4-25.64,14.4-39.48,7.53-1,26-10.56,26-10.56Z" style="fill:#85331b"/><path d="M143.53,44.65c7.2,0,14.16,1.57,20.75,3.46l.13,23.24s-18.5,9.57-26,10.56c0,13.83-6.29,29.21-14.4,39.48,4,9.18,6.81,17.05,6.81,27.72a101.09,101.09,0,0,1-10.33,43.37c-8.59,17.13-22.51,31.4-45.21,31.4-3.39,0-17.29-.89-17.29-9.63,0-4.18,4.51-4.68,9.06-6.55,3.79-1.56,19.1-8.85,19.1-25.26,0-27.9-20.07-25.51-23.32-59.14C58,73.13,100.71,44.65,143.53,44.65m0-5.92a101.84,101.84,0,0,0-37.59,7.16A84.31,84.31,0,0,0,74.95,67C61,82.32,54.8,102,56.91,123.87c1.81,18.72,8.72,27.76,14.28,35,5,6.58,9,11.78,9,23.55,0,12.45-11.81,18.29-15.43,19.78-.79.32-1.64.62-2.46.91a23,23,0,0,0-5.93,2.74A9.93,9.93,0,0,0,52,214.25c0,3.68,1.48,10.36,11.4,13.71a39.69,39.69,0,0,0,11.81,1.85,50.32,50.32,0,0,0,31.51-10.52c7.44-5.75,13.83-13.88,19-24.15a107.66,107.66,0,0,0,11-46c0-10.76-2.68-19-6-26.91a76.35,76.35,0,0,0,13.33-35.59c8.94-2.77,21.39-9.15,23-10l3.22-1.67,0-3.63-.13-23.24,0-4.44-4.27-1.22c-6-1.72-13.95-3.69-22.38-3.69Z" style="fill:#431a11"/><path d="M122.1,66.94a19.53,19.53,0,0,1,6.56-21.53c7.58-5.7,19.88-8.37,35.56-6.51,3.62.43,7.24,4.75,8.23,4.82s1-2.31,3.52-2.46c27.43-1.65,28.66,36.26,16.43,37.4-6.18.57-10.5-2.35-13.94-5.74a5.49,5.49,0,0,0-7.82.11,32.09,32.09,0,0,1-16.38,8.92C133.71,86.61,124.79,74.1,122.1,66.94Z" style="fill:#431a11"/><path d="M154.7,38.31a81,81,0,0,1,9.52.58c3.62.43,7.24,4.75,8.23,4.82h0c.89,0,1-2.32,3.48-2.46q.88-.05,1.72-.05c25.76,0,26.68,36.34,14.71,37.45q-.79.07-1.54.07c-5.37,0-9.25-2.71-12.4-5.82a5.49,5.49,0,0,0-7.82.11,32.09,32.09,0,0,1-16.38,8.92,38.42,38.42,0,0,1-8.53,1,24.42,24.42,0,0,1-23.62-16,19.53,19.53,0,0,1,6.56-21.53c6-4.49,14.87-7.1,26-7.1m0-4.74c-11.89,0-21.87,2.78-28.88,8a24.28,24.28,0,0,0-8.15,27,29.22,29.22,0,0,0,28.06,19.09,43.36,43.36,0,0,0,9.59-1.14,37.45,37.45,0,0,0,18.75-10.26.75.75,0,0,1,1.07,0c3.13,3.08,8.16,7.18,15.73,7.18.65,0,1.32,0,2-.09,7.38-.69,12.18-8.7,11.68-19.49-.61-13.21-9.27-27.42-26.83-27.42-.66,0-1.33,0-2,.06a7.63,7.63,0,0,0-3.57,1.09,15.38,15.38,0,0,0-7.34-3.42,86.1,86.1,0,0,0-10.08-.62Z" style="fill:#431a11"/><ellipse cx="125.18" cy="128.7" rx="54.37" ry="51.23" style="fill:#431a11"/><path d="M69,120.88s-31.16,17.57-28.69,52.35c0,0,4.5-16.13,18-16.32C66.8,156.79,72,164.74,68,173c-5.27,10.94-19.89,13.47-33.06,12.2,0,0,21.83,19.32,79.38,10.76l-8.78-39.5Z" style="fill:#431a11"/><path d="M193.89,174.42c-15.28,21-45.95,32.16-68.4,30.84,9.65-2.92,17.47-7.83,22.27-17.09,11.72-22.62,7.55-52.26-14.18-65.55s-69.48-7.54-59.82-23.35a70,70,0,0,1,96.16-23.21C202.88,96.21,216.6,143.16,193.89,174.42Z" style="fill:#431a11"/><path d="M196.61,112.35c1.82,45.93-38.77,85.87-84.69,87.69-6.12.24-19.52-25.4-13.12-28.28a56.29,56.29,0,0,0,33.11-53.55C130.68,87.15,194.79,66.42,196.61,112.35Z" style="fill:#431a11"/><path d="M64.72,95.08s-.46,31.9-32.36,40.22c0,0,21,6.25,41.38-10.17Z" style="fill:#431a11"/><path d="M159.82,180.41c-.73,1.65-1.25,6.44-8.28,10.7,10.6-.85,18.64-8.55,21.2-11.92C170.78,180.15,164.49,181.89,159.82,180.41Z" style="fill:#85331b"/><path d="M147.41,172.62c-9.53,4.63-14.39,4.08-14.39,4.08,6.94-5.16,7.63-11.63,7.63-11.63l.62.65a48.61,48.61,0,0,1-7.73-19.36c-8.39,13.59-5.1,40.68-46.27,42.85,36.2,10.82,67.2-11.85,67.2-11.85A33.58,33.58,0,0,1,147.41,172.62Z" style="fill:#85331b"/><path d="M81.41,178.6s-6.07,9-23.21,10.44c0,0,16.81,5,27.64.64l3-11.39Z" style="fill:#85331b"/><path d="M66.9,131.56s-13.57,9.17-17,20.73c0,0,7.9-11.15,22.35-5.22Z" style="fill:#85331b"/><path d="M210.75,114.15a36.89,36.89,0,0,0-.41-5.13,8.38,8.38,0,0,0-4.75-6.31c-2.1-1-7-2.11-9.32-2.61l1.18-5.56-9.38-11.9-6.6-10.3s-34.6,2.55-49.08,8.43c-5.86,8.48-8.5,33.52-4.78,38.55,0,0,5.1,8.08,6.4,9.07,4,3,8.88,4.83,13.21,7.4,4,2.37,8.65,6.08,8.85,11.13a8.15,8.15,0,0,1-8.14,8.63,10.3,10.3,0,0,1-4.06-.89c-.56-.24-4.06-3.62-4.11-4.34.25,3.46,2.8,9.53,5.48,11.81,3.36,2.87,7.41,2.37,11.36,1.47a2.74,2.74,0,0,1-.19,1.51c-1,3.28-3.91,4.23-6.15,4.6,3.62,4.77,10,6.37,16,6.37a20.72,20.72,0,0,0,10-3.11,13,13,0,0,0,3.87-3.47,2.56,2.56,0,0,1-.51,1.88,8.19,8.19,0,0,1-4.09,4.29,25.34,25.34,0,0,0,9.06-3.7,30.87,30.87,0,0,0,10-10.87c2.68-4.93,3.72-10.8,4.49-16.31a13.13,13.13,0,0,1,.71-3.23c1.08-2.61,3.6-4.38,5.06-6.76a41.79,41.79,0,0,0,4.23-9.17,37.11,37.11,0,0,0,1.44-6.48A36.09,36.09,0,0,0,210.75,114.15Z" style="fill:#431a11"/><path d="M181.48,72.34l6.6,10.3,9.38,11.9-1.18,5.56c2.32.5,7.22,1.58,9.32,2.61a8.38,8.38,0,0,1,4.75,6.31,36.89,36.89,0,0,1,.41,5.13,36.09,36.09,0,0,1-.3,5,37.11,37.11,0,0,1-1.44,6.48,41.79,41.79,0,0,1-4.23,9.17c-1.46,2.38-4,4.15-5.06,6.76a13.13,13.13,0,0,0-.71,3.23c-.77,5.5-1.82,11.37-4.49,16.31a30.87,30.87,0,0,1-10,10.87,25.34,25.34,0,0,1-9.06,3.7,8.19,8.19,0,0,0,4.09-4.29,2.56,2.56,0,0,0,.51-1.88,13,13,0,0,1-3.87,3.47,20.72,20.72,0,0,1-10,3.11c-5.92,0-12.34-1.6-16-6.37,2.24-.37,5.14-1.32,6.15-4.6a2.74,2.74,0,0,0,.19-1.51,23.3,23.3,0,0,1-5.11.7,9.22,9.22,0,0,1-6.25-2.17c-2.68-2.28-5.23-8.36-5.48-11.81.05.72,3.55,4.1,4.11,4.34a10.3,10.3,0,0,0,4.06.89h0a8.15,8.15,0,0,0,8.12-8.63c-.2-5.05-4.87-8.76-8.85-11.13-4.33-2.58-9.21-4.37-13.21-7.4-1.3-1-6.39-9.07-6.4-9.07-3.71-5-1.08-30.07,4.78-38.55,14.47-5.88,49.08-8.43,49.08-8.43m0-5.92-.44,0c-1.45.11-35.71,2.69-50.87,8.85a5.92,5.92,0,0,0-2.65,2.12c-1.55,2.24-5.33,9-7,23.25-.86,7.39-1.17,17.14,2.16,22,5.63,8.9,7,9.94,7.74,10.5a55.38,55.38,0,0,0,9,5.23c1.7.85,3.31,1.66,4.8,2.54,3.72,2.21,5.89,4.5,6,6.28a2.46,2.46,0,0,1-.65,1.83,2.07,2.07,0,0,1-1.55.64,4,4,0,0,1-1.15-.19c-.54-.49-1.32-1.27-1.74-1.75a5.93,5.93,0,0,0-5.3-3.29l-.44,0a5.92,5.92,0,0,0-5.48,6.34c.35,4.87,3.47,12.41,7.54,15.89a14.83,14.83,0,0,0,3,2,5.92,5.92,0,0,0,1.11,4.64c4.27,5.62,11.61,8.71,20.68,8.71a22.24,22.24,0,0,0,6.55-1.06,5.91,5.91,0,0,0,3.77.55,31.44,31.44,0,0,0,11.2-4.55l.07,0a36.68,36.68,0,0,0,11.89-13c3.07-5.66,4.29-12.14,5.15-18.31l0-.22a10.11,10.11,0,0,1,.29-1.57,11.09,11.09,0,0,1,1.75-2.25,24.85,24.85,0,0,0,2.88-3.67,47.84,47.84,0,0,0,4.83-10.47,43.2,43.2,0,0,0,1.67-7.51,42.2,42.2,0,0,0,.35-5.84,43,43,0,0,0-.48-6,14.2,14.2,0,0,0-7.8-10.64l-.2-.1a28.3,28.3,0,0,0-4.92-1.71,5.92,5.92,0,0,0-1.16-4.81L192.9,79.2l-6.44-10.06a5.92,5.92,0,0,0-5-2.73Z" style="fill:#431a11"/><path d="M210.75,114.15a36.89,36.89,0,0,0-.41-5.13,8.38,8.38,0,0,0-4.75-6.31c-2.1-1-7-2.11-9.32-2.61l1.18-5.56-9.38-11.9-6.6-10.3s-34.6,2.55-49.08,8.43c-5.86,8.48-11.89,32.41-11.89,32.41s6.55,5.75,7.85,6.74c0,0,4.15,10.59,18.87,15.88,4.36,1.57,8.65,6.08,8.85,11.13a8.15,8.15,0,0,1-8.14,8.63,10.3,10.3,0,0,1-4.06-.89c-.56-.24-3-1.25-3.09-2a14,14,0,0,0,4.45,9.45c3.36,2.87,7.41,2.37,11.36,1.47a2.74,2.74,0,0,1-.19,1.51c-1,3.28-3.91,4.23-6.15,4.6,3.62,4.77,10,6.37,16,6.37a20.72,20.72,0,0,0,10-3.11,13,13,0,0,0,3.87-3.47,2.56,2.56,0,0,1-.51,1.88,8.19,8.19,0,0,1-4.09,4.29,25.34,25.34,0,0,0,9.06-3.7,30.87,30.87,0,0,0,10-10.87c2.68-4.93,3.72-10.8,4.49-16.31a13.13,13.13,0,0,1,.71-3.23c1.08-2.61,3.6-4.38,5.06-6.76a41.79,41.79,0,0,0,4.23-9.17,37.11,37.11,0,0,0,1.44-6.48A36.09,36.09,0,0,0,210.75,114.15Z" style="fill:#e6ad47"/><g id="shadow"><path d="M178.23,175c.37-.12.74-.25,1.1-.39,7.67-3.2,14.69-12.7,15.13-31-3.27.62-10.61,4.76-14.54,5.46s-11,1.88-16.35-2-6.37-8.47-6.37-8.47L172.48,146,192,138.35l11.42-7.13-1.35-15.4s-15.15-7.13-17.68-6.54c1.39,9.36,15,8,15,14.67,0,3.61-3.73,5.76-6.93,7.61s-12.81,6.55-17.07,7.23c-9.7,1.56-9.69-8.28-18.07-15.25-6.79-5.65-15.79-4.29-21.28-6.49,2.61-4.68,7.81-15.14,9-26,0,0,11.61-.35,18.51-3.78,8-4,7.93-7.08,11.31-7.08,4.08,0,5.45,5.05,15.51,5.46l-2.34-3-4.53-7.08-5.85-2.9c-4.27.39-11.65,1.13-19.53,2.27L138,80.12l-12.81,34.06,1.31.76c-.06.13-.13.26-.18.39q.07,1.39.2,2.63l1.9,1.51s3,11,18.82,16.32a13.49,13.49,0,0,1,8.7,10,6.17,6.17,0,0,1,.15,1.1,8.15,8.15,0,0,1-8.14,8.63,10.3,10.3,0,0,1-4.06-.89c-.56-.24-3-1.25-3.09-2a14,14,0,0,0,4.45,9.45,8.79,8.79,0,0,0,2.64,1.57c2.74,1,5.76.58,8.72-.1a2.74,2.74,0,0,1-.19,1.51c-1,3.28-3.91,4.23-6.15,4.6a13.59,13.59,0,0,0,3.19,3,20,20,0,0,0,8.29,3,30.16,30.16,0,0,0,4.48.33,20.72,20.72,0,0,0,10-3.11,13,13,0,0,0,3.87-3.47,1.68,1.68,0,0,1,0,.46,3.06,3.06,0,0,1-.55,1.42c-.14.31-.28.6-.44.87l-.16.26c-.1.17-.21.34-.31.5l-.22.29c-.09.12-.18.25-.28.36l-.27.29-.24.25-.32.29-.2.17-.38.28-.14.1-.43.27-.07,0-.48.25h0l-.14.07c.7-.13,1.39-.3,2.09-.5Z" style="fill:#c89235"/></g><g id="highlight"><path d="M156.65,174.4a26,26,0,0,0,9.58,1.69c5.92,0,12.19-4.13,13.86-6.07,3.63-4.21,5-11.13,5-11.13C181.94,164.61,171.67,175.64,156.65,174.4Z" style="fill:#e6ad47"/></g><path id="Eye" d="M165,93.33c4.14,1.2,5.25,5.58,5.77,7,0,0-3.33-1.66-9.86-.84a8.38,8.38,0,0,1-9.3-5.69C151.12,92.72,160.81,92.13,165,93.33Z" style="fill:#431a11"/><path id="eye-2" data-name="eye" d="M197.46,94.54s-7.63-2.51-8.85,3.67c3.75.95,8.37,2.05,8.37,2.05Z" style="fill:#431a11"/><path id="nose_mouth" data-name="nose/mouth" d="M205.25,130.32a12,12,0,0,1,.16-4.6,17.77,17.77,0,0,1,3.64-7.24c5.37-7,0-12.79,0-12.79s1.8,3.06-5.68,3.15a70.5,70.5,0,0,1-7.66-.12,83.1,83.1,0,0,1-11-1.89c-.68-.16-.57.6-.55,1a7.51,7.51,0,0,0,.48,2.22,7.35,7.35,0,0,0,1.79,2.7c2.47,2.49,8.87,3.56,11.07,4.95a9.2,9.2,0,0,1,4.52,5.74c.33,1.51.09,4.47-1.26,5.74-4.67,4.39-19.71,14.66-29.7,14.66-5.1,0-8.54-4.74-9.5-6.4-.43-.73-.7-1.62-1.47-2.07a2.19,2.19,0,0,0-3.29,1.8,4.16,4.16,0,0,0,.9,2.25,19.78,19.78,0,0,0,3.71,4.5c3,2.66,6,3.71,10.9,3.71,8.86,0,20-7.86,23.51-10,1.93-1.2,6.59-4.73,8-3.3.63.62-1.32,3-1.74,3.67a13.78,13.78,0,0,0,3-3.85A6.08,6.08,0,0,0,205.25,130.32Z" style="fill:#431a11"/><path d="M164.28,48.11c-6.59-1.89-13.55-3.46-20.75-3.46-42.82,0-85.56,28.48-80.72,78.65,3.24,33.63,23.32,31.24,23.32,59.14,0,16.4-15.31,23.7-19.1,25.26-4.55,1.87-9.06,2.38-9.06,6.55,0,8.74,13.9,9.63,17.29,9.63,22.7,0,36.61-14.28,45.21-31.4a101.09,101.09,0,0,0,10.33-43.37c0-10.66-2.83-18.54-6.81-27.72,8.1-10.27,14.4-25.64,14.4-39.48,7.53-1,26-10.56,26-10.56Z" style="fill:#85331b"/><path d="M143.53,44.65c7.2,0,14.16,1.57,20.75,3.46l.13,23.24s-18.5,9.57-26,10.56c0,13.83-6.29,29.21-14.4,39.48,4,9.18,6.81,17.05,6.81,27.72a101.09,101.09,0,0,1-10.33,43.37c-8.59,17.13-22.51,31.4-45.21,31.4-3.39,0-17.29-.89-17.29-9.63,0-4.18,4.51-4.68,9.06-6.55,3.79-1.56,19.1-8.85,19.1-25.26,0-27.9-20.07-25.51-23.32-59.14C58,73.13,100.71,44.65,143.53,44.65m0-4.74c-26.54,0-51.85,10.42-67.7,27.88-13.68,15.06-19.81,34.42-17.74,56,1.77,18.38,8.29,26.9,14,34.42,5.17,6.76,9.26,12.1,9.26,24.27,0,13.19-12.37,19.31-16.17,20.87-.81.34-1.68.64-2.52.93a22.12,22.12,0,0,0-5.63,2.59,8.79,8.79,0,0,0-3.84,7.41c0,3.36,1.38,9.47,10.6,12.59a39.17,39.17,0,0,0,11.43,1.79A49.17,49.17,0,0,0,106,218.35c7.3-5.64,13.58-13.63,18.65-23.75a106.42,106.42,0,0,0,10.83-45.5c0-10.83-2.78-19.1-6.12-27.06C137,111.51,142.07,97.87,143,85.72c8.82-2.57,21.93-9.29,23.61-10.16l2.58-1.33,0-2.9L169,48.08l0-3.55-3.41-1c-5.91-1.7-13.77-3.64-22.05-3.64Z" style="fill:#431a11"/><g style="clip-path:url(#clip-path)"><path d="M75.26,223.88c16.27,0,28-7.34,36.55-17.8-.57-5.85-2.92-11-7.15-14.4-5.1-4.16-12-5.18-19.2-3.5-3,12.4-15.12,18.16-18.43,19.52-4.55,1.87-9.06,2.38-9.06,6.55C58,223,71.86,223.88,75.26,223.88Z" style="fill:#ad4923"/><path d="M124,121.39c8.1-10.27,14.4-25.64,14.4-39.48,2.7-.36,6.82-1.82,11-3.55-3-14.74-10.08-27.43-21.5-32.44C96.79,51,68.93,71.16,63.42,103.67c.14,23.71,15,43.93,36.06,47.14,11.14,1.69,22-1.67,30.89-8.56C129.44,134.82,127.06,128.49,124,121.39Z" style="fill:#ad4923"/><g id="shadow-2" data-name="shadow"><path d="M129.27,66.91c-49.68,18.14-62.12,63.22-62.12,63.22l5.13,17.72a102.87,102.87,0,0,1,55.06-62c4.91,4,12.12,5,12.12,5l1.18-7.31Z" style="fill:#85331b"/></g><g id="stitches"><path d="M116.45,47.64a1.48,1.48,0,0,1-.77-2.75q1-.62,2.08-1.21a1.48,1.48,0,1,1,1.46,2.58q-1,.58-2,1.17A1.48,1.48,0,0,1,116.45,47.64Z" style="fill:#431a11"/><path d="M72.72,218.08a1.48,1.48,0,0,1-.41-2.91c1.5-.43,3-.91,4.34-1.42a1.48,1.48,0,1,1,1,2.78c-1.44.54-3,1-4.56,1.49A1.47,1.47,0,0,1,72.72,218.08Zm10.83-4.36a1.48,1.48,0,0,1-.72-2.78,37.55,37.55,0,0,0,3.8-2.4,1.48,1.48,0,0,1,1.73,2.4,40.59,40.59,0,0,1-4.1,2.59A1.48,1.48,0,0,1,83.55,213.72Zm9.19-7.14a1.48,1.48,0,0,1-1.09-2.48,31.58,31.58,0,0,0,2.77-3.5,1.48,1.48,0,0,1,2.45,1.67,34.57,34.57,0,0,1-3,3.83A1.48,1.48,0,0,1,92.74,206.58ZM99,196.77a1.48,1.48,0,0,1-1.36-2.06,40.39,40.39,0,0,0,1.52-4.24,1.48,1.48,0,0,1,2.84.85,43.5,43.5,0,0,1-1.64,4.56A1.48,1.48,0,0,1,99,196.77Zm3.11-11.24-.23,0a1.48,1.48,0,0,1-1.24-1.69c.23-1.45.4-3,.53-4.54a1.48,1.48,0,1,1,3,.24c-.13,1.63-.32,3.23-.56,4.75A1.48,1.48,0,0,1,102.1,185.52Zm.79-11.66a1.48,1.48,0,0,1-1.48-1.47c0-1.57-.09-3.1-.21-4.55a1.48,1.48,0,1,1,3-.26c.14,1.52.21,3.13.23,4.78a1.48,1.48,0,0,1-1.47,1.49Zm-1.35-11.57a1.48,1.48,0,0,1-1.44-1.13,41.35,41.35,0,0,0-1.31-4.31,1.48,1.48,0,1,1,2.78-1,44.14,44.14,0,0,1,1.41,4.62,1.48,1.48,0,0,1-1.44,1.83Zm-4.18-10.88A1.48,1.48,0,0,1,96,150.6c-.62-1.22-1.25-2.41-1.91-3.67l-.24-.45a1.48,1.48,0,0,1,2.62-1.39l.24.45c.64,1.22,1.31,2.47,1.94,3.72a1.48,1.48,0,0,1-1.32,2.15ZM92,141a1.48,1.48,0,0,1-1.35-.86c-.7-1.51-1.3-2.95-1.85-4.4a1.48,1.48,0,1,1,2.77-1.05c.53,1.39,1.11,2.76,1.77,4.21A1.48,1.48,0,0,1,92,141Zm-3.92-11a1.48,1.48,0,0,1-1.43-1.12c-.38-1.5-.72-3.07-1-4.66a1.48,1.48,0,0,1,2.91-.53c.28,1.53.6,3,1,4.46A1.48,1.48,0,0,1,88.11,130Zm-1.94-11.51a1.48,1.48,0,0,1-1.47-1.34c-.14-1.53-.26-3.12-.33-4.73a1.48,1.48,0,1,1,3-.14c.08,1.56.18,3.11.32,4.59a1.48,1.48,0,0,1-1.33,1.61Zm-.46-11.67h0a1.48,1.48,0,0,1-1.47-1.49c0-1.61.06-3.2.14-4.74a1.48,1.48,0,0,1,3,.14c-.07,1.5-.12,3.05-.13,4.62A1.48,1.48,0,0,1,85.72,106.85Zm.71-11.67h-.18A1.48,1.48,0,0,1,85,93.52c.19-1.6.42-3.18.68-4.71a1.48,1.48,0,0,1,2.92.5c-.25,1.47-.48,3-.66,4.55A1.48,1.48,0,0,1,86.43,95.18ZM88.6,83.69a1.48,1.48,0,0,1-1.43-1.87c.42-1.56.89-3.1,1.4-4.57a1.48,1.48,0,1,1,2.8,1c-.49,1.41-.94,2.88-1.34,4.37A1.48,1.48,0,0,1,88.6,83.69Zm4-11a1.48,1.48,0,0,1-1.33-2.13c.7-1.45,1.46-2.87,2.27-4.23a1.48,1.48,0,0,1,2.55,1.51c-.76,1.29-1.49,2.64-2.15,4A1.48,1.48,0,0,1,92.64,72.74Zm6.17-9.91a1.48,1.48,0,0,1-1.16-2.39c1-1.25,2-2.48,3.12-3.65a1.48,1.48,0,0,1,2.17,2c-1,1.11-2,2.28-3,3.46A1.48,1.48,0,0,1,98.81,62.82Zm8.12-8.4a1.48,1.48,0,0,1-1-2.61c1.19-1,2.45-2,3.75-3a1.48,1.48,0,0,1,1.75,2.39c-1.25.92-2.46,1.87-3.59,2.83A1.48,1.48,0,0,1,106.93,54.43Z" style="fill:#431a11"/><path d="M63.31,220.14a1.48,1.48,0,0,1-.23-2.94q1.17-.19,2.3-.4a1.48,1.48,0,0,1,.55,2.91q-1.17.22-2.37.41Z" style="fill:#431a11"/></g><g id="stitches-2" data-name="stitches"><path d="M114.67,47.64a1.48,1.48,0,0,1-.77-2.75q1-.62,2.08-1.21a1.48,1.48,0,1,1,1.46,2.58q-1,.58-2,1.17A1.48,1.48,0,0,1,114.67,47.64Z" style="fill:#deb084"/><path d="M70.94,218.08a1.48,1.48,0,0,1-.41-2.91c1.5-.43,3-.91,4.34-1.42a1.48,1.48,0,1,1,1,2.78c-1.44.54-3,1-4.56,1.49A1.47,1.47,0,0,1,70.94,218.08Zm10.83-4.36a1.48,1.48,0,0,1-.72-2.78,37.55,37.55,0,0,0,3.8-2.4,1.48,1.48,0,0,1,1.73,2.4,40.59,40.59,0,0,1-4.1,2.59A1.48,1.48,0,0,1,81.77,213.72ZM91,206.58a1.48,1.48,0,0,1-1.09-2.48,31.58,31.58,0,0,0,2.77-3.5,1.48,1.48,0,0,1,2.45,1.67,34.57,34.57,0,0,1-3,3.83A1.48,1.48,0,0,1,91,206.58Zm6.25-9.81a1.48,1.48,0,0,1-1.36-2.06,40.39,40.39,0,0,0,1.52-4.24,1.48,1.48,0,0,1,2.84.85,43.5,43.5,0,0,1-1.64,4.56A1.48,1.48,0,0,1,97.21,196.77Zm3.11-11.24-.23,0a1.48,1.48,0,0,1-1.24-1.69c.23-1.45.4-3,.53-4.54a1.48,1.48,0,1,1,3,.24c-.13,1.63-.32,3.23-.56,4.75A1.48,1.48,0,0,1,100.32,185.52Zm.79-11.66a1.48,1.48,0,0,1-1.48-1.47c0-1.57-.09-3.1-.21-4.55a1.48,1.48,0,1,1,3-.26c.14,1.52.21,3.13.23,4.78a1.48,1.48,0,0,1-1.47,1.49Zm-1.35-11.57a1.48,1.48,0,0,1-1.44-1.13A41.35,41.35,0,0,0,97,156.85a1.48,1.48,0,1,1,2.78-1,44.14,44.14,0,0,1,1.41,4.62,1.48,1.48,0,0,1-1.44,1.83Zm-4.18-10.88a1.48,1.48,0,0,1-1.32-.81c-.62-1.22-1.25-2.41-1.91-3.67l-.24-.45a1.48,1.48,0,0,1,2.62-1.39l.24.45c.64,1.22,1.31,2.47,1.94,3.72a1.48,1.48,0,0,1-1.32,2.15ZM90.26,141a1.48,1.48,0,0,1-1.35-.86c-.7-1.51-1.3-2.95-1.85-4.4a1.48,1.48,0,1,1,2.77-1.05c.53,1.39,1.11,2.76,1.77,4.21a1.48,1.48,0,0,1-1.34,2.1Zm-3.92-11a1.48,1.48,0,0,1-1.43-1.12c-.38-1.5-.72-3.07-1-4.66a1.48,1.48,0,0,1,2.91-.53c.28,1.53.6,3,1,4.46A1.48,1.48,0,0,1,86.34,130ZM84.4,118.52a1.48,1.48,0,0,1-1.47-1.34c-.14-1.53-.26-3.12-.33-4.73a1.48,1.48,0,1,1,3-.14c.08,1.56.18,3.11.32,4.59a1.48,1.48,0,0,1-1.33,1.61Zm-.46-11.67h0a1.48,1.48,0,0,1-1.47-1.49c0-1.61.06-3.2.14-4.74a1.48,1.48,0,0,1,3,.14c-.07,1.5-.12,3.05-.13,4.62A1.48,1.48,0,0,1,83.94,106.85Zm.71-11.67h-.18a1.48,1.48,0,0,1-1.3-1.64c.19-1.6.42-3.18.68-4.71a1.48,1.48,0,0,1,2.92.5c-.25,1.47-.48,3-.66,4.55A1.48,1.48,0,0,1,84.65,95.18Zm2.17-11.48a1.48,1.48,0,0,1-1.43-1.87c.42-1.56.89-3.1,1.4-4.57a1.48,1.48,0,1,1,2.8,1c-.49,1.41-.94,2.88-1.34,4.37A1.48,1.48,0,0,1,86.82,83.69Zm4-11a1.48,1.48,0,0,1-1.33-2.13c.7-1.45,1.46-2.87,2.27-4.23a1.48,1.48,0,0,1,2.55,1.51c-.76,1.29-1.49,2.64-2.15,4A1.48,1.48,0,0,1,90.87,72.74ZM97,62.82a1.48,1.48,0,0,1-1.16-2.39c1-1.25,2-2.48,3.12-3.65a1.48,1.48,0,0,1,2.17,2c-1,1.11-2,2.28-3,3.46A1.48,1.48,0,0,1,97,62.82Zm8.12-8.4a1.48,1.48,0,0,1-1-2.61c1.19-1,2.45-2,3.75-3a1.48,1.48,0,1,1,1.75,2.39c-1.25.92-2.46,1.87-3.59,2.83A1.48,1.48,0,0,1,105.15,54.43Z" style="fill:#deb084"/><path d="M61.53,220.14a1.48,1.48,0,0,1-.23-2.94q1.17-.19,2.3-.4a1.48,1.48,0,0,1,.55,2.91q-1.17.22-2.37.41Z" style="fill:#deb084"/></g><path d="M123.94,62.18c-49.68,18.14-62.12,63.22-62.12,63.22L67,143.11C84.13,91,130,78,130,78Z" style="fill:#deb084"/><path d="M61.23,122.95l5.45,22.22,6.7-16.31A37,37,0,0,1,67,111.3Z" style="fill:#c1885b"/></g><path d="M68.46,146.11,64,144.62l.74-2.25a105.74,105.74,0,0,1,38.85-53.3c13.8-9.9,25.35-13.26,25.83-13.39l2.28-.65,1.3,4.56-2.28.65c-.11,0-11.37,3.32-24.53,12.8a101,101,0,0,0-37,50.82Z" style="fill:#431a11"/><path d="M62.44,127.6l-3.41-1,.49-1.71c.14-.47,3.45-11.71,13-25.33a106.26,106.26,0,0,1,50.84-39.06L125,59.9l1.22,3.34-1.67.61c-48.28,17.63-61.49,61.6-61.62,62Z" style="fill:#431a11"/><path d="M203.33,63.93c-.59-12.66-8.86-26.29-25.65-26.29-.63,0-1.28,0-1.93.06a6.38,6.38,0,0,0-3.68,1.38c-1.88-1.5-4.46-3.37-7.44-3.72a84.92,84.92,0,0,0-9.94-.61c-11.63,0-21.37,2.7-28.17,7.81a23.06,23.06,0,0,0-7.76,25.62A28.05,28.05,0,0,0,145.72,86.5,42.17,42.17,0,0,0,155,85.39a35.76,35.76,0,0,0,18.16-9.92,1.93,1.93,0,0,1,2.76,0c3,2.94,7.76,6.84,14.89,6.84.61,0,1.24,0,1.87-.09C199.44,81.56,203.8,74.05,203.33,63.93Z" style="fill:#431a11"/><path d="M122.07,65.31c-2-6.15-.64-15.17,6.61-20.29,7.61-5.38,20-7.91,35.67-6.18,3.63.4,7.26,4.47,8.25,4.53s1-2.18,3.53-2.33c27.51-1.59,28.7,34.13,16.43,35.22-7,.62-11.65-3-15.31-6.69a3.62,3.62,0,0,0-5.27.11c-3.14,3.53-8.68,7.78-17.68,9.71C133.7,83.83,124.65,73.09,122.07,65.31Z" style="fill:#deb084"/><g style="clip-path:url(#clip-path-2)"><path d="M176.71,64.07a1.78,1.78,0,0,0-3.1.06c-3,5.47-11,13.08-26.25,13.62-5.69.2-25.77-1.43-25.77-21.69l-6.27,22.24,43,7.28,31-5.14,11.35-5.15.1-15S202,73.52,191.7,73.52C190,73.52,182.1,73,176.71,64.07Z" style="fill:#c1885b"/></g><path d="M169.44,57.13c.28,8.4-9.75,14.75-20,15.1s-17.11-4.58-18.55-12.86c-1.81-10.38,5.77-14.9,18-16C167.36,41.8,169.15,48.74,169.44,57.13Z" style="fill:#52bce1"/><path d="M153.87,43.17c13.83,0,15.31,6.39,15.57,14,.28,8.4-9.75,14.75-20,15.1l-1,0c-9.67,0-16.16-4.87-17.55-12.87-1.81-10.38,5.77-14.9,18-16,1.81-.16,3.46-.23,5-.23m0-2.37v0h0c-1.59,0-3.33.08-5.17.24-8.8.77-14.62,3.16-17.81,7.3-2.33,3-3.11,6.88-2.31,11.43a16.88,16.88,0,0,0,6.6,10.94,22.17,22.17,0,0,0,13.29,3.9l1.08,0a28.42,28.42,0,0,0,15.23-5c4.7-3.36,7.2-7.82,7-12.57-.14-4-.62-8.13-3.25-11.26-2.81-3.36-7.62-5-14.69-5Z" style="fill:#431a11"/><path d="M195.21,51.13c4.35,5.64,4.62,13.91,1.51,16.53-3.82,3.21-12,1.36-15.7-5.36-3.51-6.31-4.21-14.35-1.51-16.53C183.69,42.4,191.76,46.65,195.21,51.13Z" style="fill:#52bce1"/><path d="M183.27,44.56c4.19,0,9.36,3.22,11.94,6.57,4.35,5.64,4.62,13.91,1.51,16.53A7.22,7.22,0,0,1,192,69.19a13.07,13.07,0,0,1-11-6.89c-3.51-6.31-4.21-14.35-1.51-16.53a5.85,5.85,0,0,1,3.76-1.21m0-2.37h0A8.14,8.14,0,0,0,178,43.92c-1.95,1.57-2.82,4.68-2.45,8.77a28.16,28.16,0,0,0,3.37,10.75A15.42,15.42,0,0,0,192,71.56a9.5,9.5,0,0,0,6.22-2.09c4.32-3.63,3.75-13.43-1.16-19.79-2.81-3.63-8.6-7.49-13.82-7.49Z" style="fill:#431a11"/><g id="shine"><g style="clip-path:url(#clip-path-3)"><path d="M197,48.76c4.35,5.64,4.62,13.91,1.51,16.53-3.82,3.21-11.7,1.2-15.7-5.36-4.94-8.09-4.21-14.35-1.51-16.53C185.47,40,193.53,44.28,197,48.76Z" style="fill:#b9dff1"/></g></g><g id="shine-2" data-name="shine"><g style="clip-path:url(#clip-path-4)"><ellipse cx="152.66" cy="54.43" rx="17.71" ry="13.81" style="fill:#b9dff1"/><path d="M140.57,47.35s13.48-3.33,20.81-.21c6.55,2.8,5.53,12.39,5.53,12.39s-1.33-8-7.45-10.37C152.89,46.65,140.57,47.35,140.57,47.35Z" style="fill:#fff;opacity:0.85"/></g></g><path d="M179.54,48.38s2.54-3.47,8-1.09c5.08,2.22,7.8,7.06,8.89,9.92,0,0-5-7.05-10.09-8.63S179.54,48.38,179.54,48.38Z" style="fill:#fff;opacity:0.85"/><path id="ear" d="M121.35,83.18s-2.25.12-9.77-1.48c-9.28-2-27.24,7.53-30,13.63s10.55,19.35,33.31,19.35c0,0,4.18-9.82,6.91-17.64C124.19,90.18,121.35,83.18,121.35,83.18Z" style="fill:#431a11"/><path id="ear-2" data-name="ear" d="M126.16,82.5a21.58,21.58,0,0,0-10.41-7.66c-6-2.19-22.16-3.24-24.92,2.86s-1,25.84,24.05,33.42a44.63,44.63,0,0,0,8.33-13.84A65.73,65.73,0,0,0,126.16,82.5Z" style="fill:#e6ad47"/><path id="ear-3" data-name="ear" d="M103.85,73.13a38.79,38.79,0,0,1,11.9,1.71,21.58,21.58,0,0,1,10.41,7.66,65.73,65.73,0,0,1-2.95,14.78,44.63,44.63,0,0,1-8.33,13.84C89.78,103.54,88.07,83.8,90.83,77.7c1.54-3.4,7.24-4.58,13-4.58m0-3.55c-6,0-13.76,1.16-16.26,6.66-1.76,3.89-2.05,11.11,1.29,18.47,2.94,6.49,9.67,15.19,25,19.82a3.55,3.55,0,0,0,3.63-1,48.06,48.06,0,0,0,9.08-15.09,68.87,68.87,0,0,0,3.14-15.7,3.55,3.55,0,0,0-.54-2.15A25.22,25.22,0,0,0,117,71.5a42.38,42.38,0,0,0-13.12-1.93Z" style="fill:#431a11"/><g id="shadow-3" data-name="shadow"><path d="M94.74,79.63c1.43-1.5,8.82-3.46,17-1.28,8.48,2.26,10.06,6.71,10.06,6.71A34.94,34.94,0,0,0,107.46,82c-6.66-.09-10.46,1.44-11.38,9C93.79,86.74,93.5,80.94,94.74,79.63Z" style="fill:#c49033"/></g></g><g id="stars_copy" data-name="stars copy"><g style="opacity:0.25"><path d="M31.46,51.45Q31.46,31,11,31q20.48,0,20.48-20.48Q31.46,31,51.94,31,31.46,31,31.46,51.45Z" style="fill:#fff"/></g><g style="opacity:0.25"><path d="M216.78,225q0-16.38-16.38-16.38,16.38,0,16.38-16.38,0,16.38,16.38,16.38Q216.78,208.63,216.78,225Z" style="fill:#fff"/></g><g style="opacity:0.25"><path d="M24,93.73q0-12.29-12.29-12.29Q24,81.44,24,69.16q0,12.29,12.29,12.29Q24,81.44,24,93.73Z" style="fill:#fff"/></g><g style="opacity:0.25"><circle cx="76.6" cy="21.3" r="4.1" style="fill:#fff"/></g><g style="opacity:0.25"><circle cx="237.12" cy="236.66" r="4.1" style="fill:#fff"/></g></g></g></svg>